<?xml version="1.0" standalone="no"?>
<!DOCTYPE svg PUBLIC "-//W3C//DTD SVG 20010904//EN"
 "http://www.w3.org/TR/2001/REC-SVG-20010904/DTD/svg10.dtd">
<svg version="1.0" xmlns="http://www.w3.org/2000/svg"
 width="225.000000pt" height="225.000000pt" viewBox="0 0 225.000000 225.000000"
 preserveAspectRatio="xMidYMid meet">

<g transform="translate(0.000000,225.000000) scale(0.100000,-0.100000)"
fill="#000000" stroke="none">
<path d="M0 1125 l0 -1125 1125 0 1125 0 0 1125 0 1125 -1125 0 -1125 0 0
-1125z m925 768 c4 -32 11 -70 17 -86 11 -28 121 -137 140 -137 6 0 9 28 7 79
-5 89 -16 108 -96 159 -24 15 -43 30 -43 35 0 4 77 7 170 7 94 0 170 -2 170
-5 0 -2 -27 -23 -60 -45 -33 -22 -64 -49 -70 -60 -5 -10 -10 -55 -10 -100 l0
-81 56 48 c75 65 95 101 102 179 l5 65 131 -3 131 -3 0 -700 0 -700 -24 -53
c-29 -65 -104 -134 -168 -156 -30 -10 -81 -16 -145 -16 l-98 0 0 43 c0 40 4
46 60 96 79 69 102 114 98 192 l-3 60 -72 -50 c-39 -28 -79 -61 -87 -73 l-16
-22 -16 22 c-8 12 -48 45 -87 73 l-72 50 -3 -60 c-4 -78 19 -123 98 -192 56
-50 60 -56 60 -97 l0 -44 -117 4 c-97 3 -125 8 -160 26 -54 28 -106 81 -135
135 l-23 42 -3 713 -3 712 130 0 130 0 6 -57z"/>
<path d="M926 1693 c-9 -9 5 -115 19 -143 16 -31 119 -130 135 -130 9 0 11 23
9 79 -3 61 -8 84 -24 101 -28 31 -131 100 -139 93z"/>
<path d="M1230 1650 c-77 -56 -80 -62 -80 -158 l0 -83 61 53 c73 63 89 92 96
170 7 71 0 73 -77 18z"/>
<path d="M925 1440 c-9 -15 12 -126 29 -152 16 -24 120 -118 130 -118 13 0 5
142 -8 169 -8 15 -41 46 -74 69 -65 45 -68 47 -77 32z"/>
<path d="M1232 1405 c-34 -24 -66 -53 -72 -65 -6 -11 -10 -54 -8 -97 l3 -76
59 54 c33 30 67 72 77 94 19 41 26 135 10 135 -5 0 -36 -20 -69 -45z"/>
<path d="M926 1203 c-9 -9 5 -115 20 -144 15 -29 120 -129 136 -129 6 0 9 29
7 79 -3 61 -8 84 -24 101 -28 31 -131 100 -139 93z"/>
<path d="M1238 1165 c-37 -25 -72 -54 -78 -65 -6 -11 -10 -56 -8 -100 l3 -80
67 63 c72 67 92 111 86 188 l-3 39 -67 -45z"/>
<path d="M926 953 c-9 -10 5 -115 20 -144 14 -27 121 -129 136 -129 12 0 9
136 -3 164 -7 14 -37 43 -68 64 -73 50 -77 53 -85 45z"/>
<path d="M1229 911 c-36 -27 -69 -56 -72 -66 -10 -23 -9 -165 1 -165 4 0 35
27 69 59 42 41 65 71 72 98 12 44 15 123 4 123 -5 0 -38 -22 -74 -49z"/>
</g>
</svg>
